<svg width="30" height="30" viewBox="0 0 30 30" fill="none" xmlns="http://www.w3.org/2000/svg">
<path d="M14.2566 22.5995C12.6106 20.5818 9 15.75 9 13.042C9 9.69689 11.6549 7.04202 15 7.04202C18.292 7.04202 21 9.69689 21 13.042C21 15.75 17.3363 20.6349 15.7434 22.5995C15.3186 23.0774 14.6283 23.0774 14.2566 22.5995ZM15 15.0066C15.265 15.0066 15.5273 14.9544 15.7721 14.853C16.0169 14.7516 16.2394 14.603 16.4267 14.4157C16.6141 14.2283 16.7627 14.0059 16.8641 13.7611C16.9655 13.5163 17.0177 13.2539 17.0177 12.9889C17.0177 12.724 16.9655 12.4616 16.8641 12.2168C16.7627 11.972 16.6141 11.7496 16.4267 11.5622C16.2394 11.3748 16.0169 11.2262 15.7721 11.1248C15.5273 11.0234 15.265 10.9712 15 10.9712C14.4649 10.9712 13.9517 11.1838 13.5733 11.5622C13.1949 11.9406 12.9823 12.4538 12.9823 12.9889C12.9823 13.5241 13.1949 14.0373 13.5733 14.4157C13.9517 14.794 14.4649 15.0066 15 15.0066Z" fill="black"/>
</svg>
